<svg xmlns="http://www.w3.org/2000/svg" width="238.674" height="42" viewBox="0 0 238.674 42">
  <g id="Grupo_29" data-name="Grupo 29" transform="translate(-60.112 -65.726)">
    <text id="Felicidade_ES" data-name="Felicidade ES" transform="translate(60.112 98.726)" fill="#0b4f6c" font-size="31.961" font-family="Roboto-Black, Roboto" font-weight="800"><tspan x="0" y="0">Felicidade ES</tspan></text>
    <path id="Caminho_17" data-name="Caminho 17" d="M269.165,84.078a6.963,6.963,0,0,1,0-13.926,2,2,0,0,1,0,4,2.963,2.963,0,0,0,0,5.926,2,2,0,0,1,0,4Zm-.02,22.176a6.961,6.961,0,1,1,0-13.922,2,2,0,0,1,0,4,2.961,2.961,0,1,0,0,5.922,2,2,0,0,1,0,4Zm17.879.887a2.4,2.4,0,1,1-1.84-4.43c5.348-2.223,8.805-7.727,8.805-14.02a15.016,15.016,0,0,0-8.809-13.937,2.4,2.4,0,1,1,1.9-4.406,19.805,19.805,0,0,1,11.7,18.343c0,8.239-4.613,15.485-11.762,18.45Zm0,0" fill="#0b4f6c"/>
  </g>
</svg>
